<mxfile host="app.diagrams.net" modified="2023-12-08T05:37:15.078Z" agent="Mozilla/5.0 (Windows NT 10.0; Win64; x64) AppleWebKit/537.36 (KHTML, like Gecko) Chrome/119.0.0.0 Safari/537.36" etag="5XE7pS7sBzJqpWKCtIYs" version="22.1.7" type="device">
  <diagram id="C5RBs43oDa-KdzZeNtuy" name="Page-1">
    <mxGraphModel dx="1728" dy="932" grid="1" gridSize="10" guides="1" tooltips="1" connect="1" arrows="1" fold="1" page="1" pageScale="1" pageWidth="827" pageHeight="1169" math="0" shadow="0">
      <root>
        <mxCell id="WIyWlLk6GJQsqaUBKTNV-0" />
        <mxCell id="WIyWlLk6GJQsqaUBKTNV-1" parent="WIyWlLk6GJQsqaUBKTNV-0" />
        <mxCell id="WIyWlLk6GJQsqaUBKTNV-2" value="" style="rounded=0;html=1;jettySize=auto;orthogonalLoop=1;fontSize=11;endArrow=block;endFill=0;endSize=8;strokeWidth=1;shadow=0;labelBackgroundColor=none;edgeStyle=orthogonalEdgeStyle;" parent="WIyWlLk6GJQsqaUBKTNV-1" source="WIyWlLk6GJQsqaUBKTNV-3" edge="1">
          <mxGeometry relative="1" as="geometry">
            <mxPoint x="210" y="100" as="targetPoint" />
          </mxGeometry>
        </mxCell>
        <mxCell id="WIyWlLk6GJQsqaUBKTNV-3" value="Start Integration" style="rounded=1;whiteSpace=wrap;html=1;fontSize=12;glass=0;strokeWidth=1;shadow=0;" parent="WIyWlLk6GJQsqaUBKTNV-1" vertex="1">
          <mxGeometry x="150" y="10" width="120" height="40" as="geometry" />
        </mxCell>
        <mxCell id="nCaApxZNVOdiWcQGF8Zd-30" value="" style="edgeStyle=orthogonalEdgeStyle;rounded=0;orthogonalLoop=1;jettySize=auto;html=1;" edge="1" parent="WIyWlLk6GJQsqaUBKTNV-1" source="nCaApxZNVOdiWcQGF8Zd-31">
          <mxGeometry relative="1" as="geometry">
            <mxPoint x="210" y="190" as="targetPoint" />
          </mxGeometry>
        </mxCell>
        <mxCell id="WIyWlLk6GJQsqaUBKTNV-7" value="Integrate Model with Hardware" style="rounded=1;whiteSpace=wrap;html=1;fontSize=12;glass=0;strokeWidth=1;shadow=0;" parent="WIyWlLk6GJQsqaUBKTNV-1" vertex="1">
          <mxGeometry x="150" y="100" width="120" height="40" as="geometry" />
        </mxCell>
        <mxCell id="nCaApxZNVOdiWcQGF8Zd-33" style="edgeStyle=orthogonalEdgeStyle;rounded=0;orthogonalLoop=1;jettySize=auto;html=1;exitX=0.5;exitY=1;exitDx=0;exitDy=0;entryX=0.5;entryY=0;entryDx=0;entryDy=0;" edge="1" parent="WIyWlLk6GJQsqaUBKTNV-1" source="nCaApxZNVOdiWcQGF8Zd-31" target="nCaApxZNVOdiWcQGF8Zd-32">
          <mxGeometry relative="1" as="geometry" />
        </mxCell>
        <mxCell id="nCaApxZNVOdiWcQGF8Zd-40" style="edgeStyle=orthogonalEdgeStyle;rounded=0;orthogonalLoop=1;jettySize=auto;html=1;exitX=0.5;exitY=1;exitDx=0;exitDy=0;" edge="1" parent="WIyWlLk6GJQsqaUBKTNV-1" source="nCaApxZNVOdiWcQGF8Zd-32">
          <mxGeometry relative="1" as="geometry">
            <mxPoint x="210" y="330" as="targetPoint" />
          </mxGeometry>
        </mxCell>
        <mxCell id="nCaApxZNVOdiWcQGF8Zd-32" value="Integrate Software with Hardware" style="rounded=1;whiteSpace=wrap;html=1;fontSize=12;glass=0;strokeWidth=1;shadow=0;" vertex="1" parent="WIyWlLk6GJQsqaUBKTNV-1">
          <mxGeometry x="150" y="268" width="120" height="40" as="geometry" />
        </mxCell>
        <mxCell id="nCaApxZNVOdiWcQGF8Zd-36" value="Address Model Integration Issues" style="rounded=1;whiteSpace=wrap;html=1;fontSize=12;glass=0;strokeWidth=1;shadow=0;" vertex="1" parent="WIyWlLk6GJQsqaUBKTNV-1">
          <mxGeometry x="300" y="190" width="120" height="40" as="geometry" />
        </mxCell>
        <mxCell id="nCaApxZNVOdiWcQGF8Zd-37" value="yes" style="text;html=1;align=center;verticalAlign=middle;resizable=0;points=[];autosize=1;strokeColor=none;fillColor=none;" vertex="1" parent="WIyWlLk6GJQsqaUBKTNV-1">
          <mxGeometry x="210" y="238" width="40" height="30" as="geometry" />
        </mxCell>
        <mxCell id="nCaApxZNVOdiWcQGF8Zd-38" value="no" style="text;html=1;align=center;verticalAlign=middle;resizable=0;points=[];autosize=1;strokeColor=none;fillColor=none;" vertex="1" parent="WIyWlLk6GJQsqaUBKTNV-1">
          <mxGeometry x="250" y="170" width="40" height="30" as="geometry" />
        </mxCell>
        <mxCell id="nCaApxZNVOdiWcQGF8Zd-41" value="[Start Integration]&#xa;    |&#xa;    V&#xa;[Integrate Model with Hardware]&#xa;    |&#xa;    V&#xa;[Model Integrated Successfully?]&#xa;    |--------------------|&#xa;    | Yes                | No&#xa;    |                    V&#xa;    V              [Address Model Integration Issues]&#xa;[Integrate Software with Hardware]&#xa;    |&#xa;    V&#xa;[Software Integrated Successfully?]&#xa;    |--------------------|&#xa;    | Yes                | No&#xa;    |                    V&#xa;    V              [Address Software Integration Issues]&#xa;[Ensure Communication]&#xa;    |&#xa;    V&#xa;[Communication Established Successfully?]&#xa;    |--------------------|&#xa;    | Yes                | No&#xa;    |                    V&#xa;    V              [Establish Communication Protocols]&#xa;[Test Integration]&#xa;    |&#xa;    V&#xa;[Integration Successful?]&#xa;    |--------------------|&#xa;    | Yes                | No&#xa;    |                    V&#xa;    V              [Troubleshoot Integration Issues]&#xa;[Complete Integration]&#xa;    |&#xa;    V&#xa;[End]" style="text;whiteSpace=wrap;" vertex="1" parent="WIyWlLk6GJQsqaUBKTNV-1">
          <mxGeometry x="610" y="90" width="300" height="580" as="geometry" />
        </mxCell>
        <mxCell id="nCaApxZNVOdiWcQGF8Zd-42" value="" style="edgeStyle=orthogonalEdgeStyle;rounded=0;orthogonalLoop=1;jettySize=auto;html=1;" edge="1" parent="WIyWlLk6GJQsqaUBKTNV-1" source="WIyWlLk6GJQsqaUBKTNV-7" target="nCaApxZNVOdiWcQGF8Zd-31">
          <mxGeometry relative="1" as="geometry">
            <mxPoint x="210" y="140" as="sourcePoint" />
            <mxPoint x="210" y="190" as="targetPoint" />
          </mxGeometry>
        </mxCell>
        <mxCell id="nCaApxZNVOdiWcQGF8Zd-43" style="edgeStyle=orthogonalEdgeStyle;rounded=0;orthogonalLoop=1;jettySize=auto;html=1;exitX=1;exitY=0.5;exitDx=0;exitDy=0;entryX=0;entryY=0.25;entryDx=0;entryDy=0;" edge="1" parent="WIyWlLk6GJQsqaUBKTNV-1" source="nCaApxZNVOdiWcQGF8Zd-31" target="nCaApxZNVOdiWcQGF8Zd-36">
          <mxGeometry relative="1" as="geometry" />
        </mxCell>
        <mxCell id="nCaApxZNVOdiWcQGF8Zd-31" value="Model Integrated Successfully?" style="rhombus;whiteSpace=wrap;html=1;" vertex="1" parent="WIyWlLk6GJQsqaUBKTNV-1">
          <mxGeometry x="170" y="160" width="80" height="80" as="geometry" />
        </mxCell>
        <mxCell id="nCaApxZNVOdiWcQGF8Zd-49" style="edgeStyle=orthogonalEdgeStyle;rounded=0;orthogonalLoop=1;jettySize=auto;html=1;exitX=1;exitY=0.5;exitDx=0;exitDy=0;" edge="1" parent="WIyWlLk6GJQsqaUBKTNV-1" source="nCaApxZNVOdiWcQGF8Zd-47">
          <mxGeometry relative="1" as="geometry">
            <mxPoint x="300" y="370" as="targetPoint" />
          </mxGeometry>
        </mxCell>
        <mxCell id="nCaApxZNVOdiWcQGF8Zd-52" style="edgeStyle=orthogonalEdgeStyle;rounded=0;orthogonalLoop=1;jettySize=auto;html=1;exitX=0.5;exitY=1;exitDx=0;exitDy=0;entryX=0.5;entryY=0;entryDx=0;entryDy=0;" edge="1" parent="WIyWlLk6GJQsqaUBKTNV-1" source="nCaApxZNVOdiWcQGF8Zd-47" target="nCaApxZNVOdiWcQGF8Zd-53">
          <mxGeometry relative="1" as="geometry">
            <mxPoint x="210" y="420" as="targetPoint" />
          </mxGeometry>
        </mxCell>
        <mxCell id="nCaApxZNVOdiWcQGF8Zd-47" value="Software Integrated Successfully?" style="rhombus;whiteSpace=wrap;html=1;" vertex="1" parent="WIyWlLk6GJQsqaUBKTNV-1">
          <mxGeometry x="170" y="330" width="80" height="80" as="geometry" />
        </mxCell>
        <mxCell id="nCaApxZNVOdiWcQGF8Zd-50" value="Address Software Integration Issues" style="rounded=1;whiteSpace=wrap;html=1;fontSize=12;glass=0;strokeWidth=1;shadow=0;" vertex="1" parent="WIyWlLk6GJQsqaUBKTNV-1">
          <mxGeometry x="300" y="350" width="120" height="40" as="geometry" />
        </mxCell>
        <mxCell id="nCaApxZNVOdiWcQGF8Zd-58" style="edgeStyle=orthogonalEdgeStyle;rounded=0;orthogonalLoop=1;jettySize=auto;html=1;exitX=0.5;exitY=1;exitDx=0;exitDy=0;" edge="1" parent="WIyWlLk6GJQsqaUBKTNV-1" source="nCaApxZNVOdiWcQGF8Zd-53">
          <mxGeometry relative="1" as="geometry">
            <mxPoint x="210" y="520" as="targetPoint" />
          </mxGeometry>
        </mxCell>
        <mxCell id="nCaApxZNVOdiWcQGF8Zd-53" value="Ensure Communication" style="rounded=1;whiteSpace=wrap;html=1;fontSize=12;glass=0;strokeWidth=1;shadow=0;" vertex="1" parent="WIyWlLk6GJQsqaUBKTNV-1">
          <mxGeometry x="150" y="440" width="120" height="40" as="geometry" />
        </mxCell>
        <mxCell id="nCaApxZNVOdiWcQGF8Zd-64" style="edgeStyle=orthogonalEdgeStyle;rounded=0;orthogonalLoop=1;jettySize=auto;html=1;exitX=1;exitY=0.5;exitDx=0;exitDy=0;entryX=0;entryY=0.5;entryDx=0;entryDy=0;" edge="1" parent="WIyWlLk6GJQsqaUBKTNV-1" source="nCaApxZNVOdiWcQGF8Zd-59" target="nCaApxZNVOdiWcQGF8Zd-62">
          <mxGeometry relative="1" as="geometry" />
        </mxCell>
        <mxCell id="nCaApxZNVOdiWcQGF8Zd-68" style="edgeStyle=orthogonalEdgeStyle;rounded=0;orthogonalLoop=1;jettySize=auto;html=1;exitX=0.5;exitY=1;exitDx=0;exitDy=0;entryX=0.5;entryY=0;entryDx=0;entryDy=0;" edge="1" parent="WIyWlLk6GJQsqaUBKTNV-1" source="nCaApxZNVOdiWcQGF8Zd-59" target="nCaApxZNVOdiWcQGF8Zd-67">
          <mxGeometry relative="1" as="geometry" />
        </mxCell>
        <mxCell id="nCaApxZNVOdiWcQGF8Zd-59" value="Communication Established Successfully?" style="rhombus;whiteSpace=wrap;html=1;" vertex="1" parent="WIyWlLk6GJQsqaUBKTNV-1">
          <mxGeometry x="170" y="514" width="80" height="80" as="geometry" />
        </mxCell>
        <mxCell id="nCaApxZNVOdiWcQGF8Zd-62" value="Establish Communication Protocols" style="rounded=1;whiteSpace=wrap;html=1;fontSize=12;glass=0;strokeWidth=1;shadow=0;" vertex="1" parent="WIyWlLk6GJQsqaUBKTNV-1">
          <mxGeometry x="300" y="534" width="120" height="40" as="geometry" />
        </mxCell>
        <mxCell id="nCaApxZNVOdiWcQGF8Zd-70" style="edgeStyle=orthogonalEdgeStyle;rounded=0;orthogonalLoop=1;jettySize=auto;html=1;exitX=0.5;exitY=1;exitDx=0;exitDy=0;" edge="1" parent="WIyWlLk6GJQsqaUBKTNV-1" source="nCaApxZNVOdiWcQGF8Zd-67">
          <mxGeometry relative="1" as="geometry">
            <mxPoint x="210" y="700" as="targetPoint" />
          </mxGeometry>
        </mxCell>
        <mxCell id="nCaApxZNVOdiWcQGF8Zd-67" value="Test Integration" style="rounded=1;whiteSpace=wrap;html=1;fontSize=12;glass=0;strokeWidth=1;shadow=0;" vertex="1" parent="WIyWlLk6GJQsqaUBKTNV-1">
          <mxGeometry x="150" y="640" width="120" height="40" as="geometry" />
        </mxCell>
        <mxCell id="nCaApxZNVOdiWcQGF8Zd-75" style="edgeStyle=orthogonalEdgeStyle;rounded=0;orthogonalLoop=1;jettySize=auto;html=1;exitX=1;exitY=0.5;exitDx=0;exitDy=0;entryX=0;entryY=0.5;entryDx=0;entryDy=0;" edge="1" parent="WIyWlLk6GJQsqaUBKTNV-1" source="nCaApxZNVOdiWcQGF8Zd-71" target="nCaApxZNVOdiWcQGF8Zd-74">
          <mxGeometry relative="1" as="geometry" />
        </mxCell>
        <mxCell id="nCaApxZNVOdiWcQGF8Zd-77" style="edgeStyle=orthogonalEdgeStyle;rounded=0;orthogonalLoop=1;jettySize=auto;html=1;exitX=0.5;exitY=1;exitDx=0;exitDy=0;" edge="1" parent="WIyWlLk6GJQsqaUBKTNV-1" source="nCaApxZNVOdiWcQGF8Zd-71">
          <mxGeometry relative="1" as="geometry">
            <mxPoint x="210" y="760" as="targetPoint" />
          </mxGeometry>
        </mxCell>
        <mxCell id="nCaApxZNVOdiWcQGF8Zd-79" style="edgeStyle=orthogonalEdgeStyle;rounded=0;orthogonalLoop=1;jettySize=auto;html=1;exitX=0.5;exitY=1;exitDx=0;exitDy=0;" edge="1" parent="WIyWlLk6GJQsqaUBKTNV-1" source="nCaApxZNVOdiWcQGF8Zd-71">
          <mxGeometry relative="1" as="geometry">
            <mxPoint x="210" y="770" as="targetPoint" />
          </mxGeometry>
        </mxCell>
        <mxCell id="nCaApxZNVOdiWcQGF8Zd-82" style="edgeStyle=orthogonalEdgeStyle;rounded=0;orthogonalLoop=1;jettySize=auto;html=1;exitX=0.5;exitY=1;exitDx=0;exitDy=0;entryX=0.5;entryY=0;entryDx=0;entryDy=0;" edge="1" parent="WIyWlLk6GJQsqaUBKTNV-1" source="nCaApxZNVOdiWcQGF8Zd-71" target="nCaApxZNVOdiWcQGF8Zd-80">
          <mxGeometry relative="1" as="geometry" />
        </mxCell>
        <mxCell id="nCaApxZNVOdiWcQGF8Zd-71" value="Integration Successful?" style="rhombus;whiteSpace=wrap;html=1;" vertex="1" parent="WIyWlLk6GJQsqaUBKTNV-1">
          <mxGeometry x="170" y="700" width="80" height="80" as="geometry" />
        </mxCell>
        <mxCell id="nCaApxZNVOdiWcQGF8Zd-74" value="Troubleshoot Integration Issues" style="rounded=1;whiteSpace=wrap;html=1;fontSize=12;glass=0;strokeWidth=1;shadow=0;" vertex="1" parent="WIyWlLk6GJQsqaUBKTNV-1">
          <mxGeometry x="293" y="720" width="120" height="40" as="geometry" />
        </mxCell>
        <mxCell id="nCaApxZNVOdiWcQGF8Zd-84" style="edgeStyle=orthogonalEdgeStyle;rounded=0;orthogonalLoop=1;jettySize=auto;html=1;exitX=0.5;exitY=1;exitDx=0;exitDy=0;" edge="1" parent="WIyWlLk6GJQsqaUBKTNV-1" source="nCaApxZNVOdiWcQGF8Zd-80" target="nCaApxZNVOdiWcQGF8Zd-83">
          <mxGeometry relative="1" as="geometry" />
        </mxCell>
        <mxCell id="nCaApxZNVOdiWcQGF8Zd-80" value="Complete Integration" style="rounded=1;whiteSpace=wrap;html=1;fontSize=12;glass=0;strokeWidth=1;shadow=0;" vertex="1" parent="WIyWlLk6GJQsqaUBKTNV-1">
          <mxGeometry x="150" y="810" width="120" height="40" as="geometry" />
        </mxCell>
        <mxCell id="nCaApxZNVOdiWcQGF8Zd-83" value="End" style="rounded=1;whiteSpace=wrap;html=1;fontSize=12;glass=0;strokeWidth=1;shadow=0;" vertex="1" parent="WIyWlLk6GJQsqaUBKTNV-1">
          <mxGeometry x="150" y="870" width="120" height="40" as="geometry" />
        </mxCell>
        <mxCell id="nCaApxZNVOdiWcQGF8Zd-85" value="no" style="text;html=1;align=center;verticalAlign=middle;resizable=0;points=[];autosize=1;strokeColor=none;fillColor=none;" vertex="1" parent="WIyWlLk6GJQsqaUBKTNV-1">
          <mxGeometry x="253" y="350" width="40" height="30" as="geometry" />
        </mxCell>
        <mxCell id="nCaApxZNVOdiWcQGF8Zd-86" value="no" style="text;html=1;align=center;verticalAlign=middle;resizable=0;points=[];autosize=1;strokeColor=none;fillColor=none;" vertex="1" parent="WIyWlLk6GJQsqaUBKTNV-1">
          <mxGeometry x="253" y="530" width="40" height="30" as="geometry" />
        </mxCell>
        <mxCell id="nCaApxZNVOdiWcQGF8Zd-87" value="no" style="text;html=1;align=center;verticalAlign=middle;resizable=0;points=[];autosize=1;strokeColor=none;fillColor=none;" vertex="1" parent="WIyWlLk6GJQsqaUBKTNV-1">
          <mxGeometry x="253" y="710" width="40" height="30" as="geometry" />
        </mxCell>
        <mxCell id="nCaApxZNVOdiWcQGF8Zd-88" value="yes" style="text;html=1;align=center;verticalAlign=middle;resizable=0;points=[];autosize=1;strokeColor=none;fillColor=none;" vertex="1" parent="WIyWlLk6GJQsqaUBKTNV-1">
          <mxGeometry x="213" y="410" width="40" height="30" as="geometry" />
        </mxCell>
        <mxCell id="nCaApxZNVOdiWcQGF8Zd-89" value="yes" style="text;html=1;align=center;verticalAlign=middle;resizable=0;points=[];autosize=1;strokeColor=none;fillColor=none;" vertex="1" parent="WIyWlLk6GJQsqaUBKTNV-1">
          <mxGeometry x="210" y="600" width="40" height="30" as="geometry" />
        </mxCell>
        <mxCell id="nCaApxZNVOdiWcQGF8Zd-90" value="yes" style="text;html=1;align=center;verticalAlign=middle;resizable=0;points=[];autosize=1;strokeColor=none;fillColor=none;" vertex="1" parent="WIyWlLk6GJQsqaUBKTNV-1">
          <mxGeometry x="213" y="780" width="40" height="30" as="geometry" />
        </mxCell>
      </root>
    </mxGraphModel>
  </diagram>
</mxfile>
